<mxfile host="app.diagrams.net" agent="Mozilla/5.0 (X11; Linux x86_64) AppleWebKit/537.36 (KHTML, like Gecko) Chrome/127.0.0.0 Safari/537.36" version="24.7.7">
  <diagram name="Page-1" id="YSvLig4bJD8pWGC2IVGL">
    <mxGraphModel dx="922" dy="462" grid="1" gridSize="10" guides="1" tooltips="1" connect="1" arrows="1" fold="1" page="0" pageScale="1" pageWidth="827" pageHeight="1169" math="0" shadow="0">
      <root>
        <mxCell id="0" />
        <mxCell id="1" parent="0" />
        <mxCell id="3Ctos8sl4r5GYlIamhK7-1" value="x = garbage" style="rounded=0;whiteSpace=wrap;html=1;fillColor=#f8cecc;strokeColor=#b85450;" vertex="1" parent="1">
          <mxGeometry x="130" y="80" width="60" height="40" as="geometry" />
        </mxCell>
        <mxCell id="3Ctos8sl4r5GYlIamhK7-25" style="edgeStyle=orthogonalEdgeStyle;rounded=0;orthogonalLoop=1;jettySize=auto;html=1;exitX=0.75;exitY=1;exitDx=0;exitDy=0;entryX=1;entryY=0;entryDx=0;entryDy=0;" edge="1" parent="1" source="3Ctos8sl4r5GYlIamhK7-2" target="3Ctos8sl4r5GYlIamhK7-23">
          <mxGeometry relative="1" as="geometry">
            <Array as="points">
              <mxPoint x="236" y="150" />
              <mxPoint x="711" y="150" />
            </Array>
          </mxGeometry>
        </mxCell>
        <mxCell id="3Ctos8sl4r5GYlIamhK7-2" value="&lt;font style=&quot;font-size: 20px;&quot;&gt;e&lt;/font&gt;" style="rounded=0;whiteSpace=wrap;html=1;fillColor=#f8cecc;strokeColor=#b85450;" vertex="1" parent="1">
          <mxGeometry x="191" y="80" width="60" height="40" as="geometry" />
        </mxCell>
        <mxCell id="3Ctos8sl4r5GYlIamhK7-8" value="&lt;font style=&quot;font-size: 25px;&quot;&gt;e&lt;/font&gt;" style="text;html=1;align=center;verticalAlign=middle;resizable=0;points=[];autosize=1;strokeColor=none;fillColor=none;" vertex="1" parent="1">
          <mxGeometry x="140" y="43" width="40" height="40" as="geometry" />
        </mxCell>
        <mxCell id="3Ctos8sl4r5GYlIamhK7-13" value="" style="edgeStyle=orthogonalEdgeStyle;rounded=0;orthogonalLoop=1;jettySize=auto;html=1;exitX=0.358;exitY=0.967;exitDx=0;exitDy=0;exitPerimeter=0;" edge="1" parent="1" source="3Ctos8sl4r5GYlIamhK7-11">
          <mxGeometry relative="1" as="geometry">
            <mxPoint x="300" y="80" as="sourcePoint" />
            <mxPoint x="191" y="80" as="targetPoint" />
            <Array as="points">
              <mxPoint x="383" y="80" />
              <mxPoint x="370" y="80" />
              <mxPoint x="370" y="60" />
              <mxPoint x="191" y="60" />
            </Array>
          </mxGeometry>
        </mxCell>
        <mxCell id="3Ctos8sl4r5GYlIamhK7-9" value="" style="rounded=0;whiteSpace=wrap;html=1;fillColor=#f8cecc;strokeColor=#b85450;" vertex="1" parent="1">
          <mxGeometry x="360" y="80" width="60" height="40" as="geometry" />
        </mxCell>
        <mxCell id="3Ctos8sl4r5GYlIamhK7-27" style="edgeStyle=orthogonalEdgeStyle;rounded=0;orthogonalLoop=1;jettySize=auto;html=1;exitX=0.75;exitY=1;exitDx=0;exitDy=0;entryX=0.25;entryY=0;entryDx=0;entryDy=0;" edge="1" parent="1" source="3Ctos8sl4r5GYlIamhK7-10" target="3Ctos8sl4r5GYlIamhK7-24">
          <mxGeometry relative="1" as="geometry" />
        </mxCell>
        <mxCell id="3Ctos8sl4r5GYlIamhK7-10" value="" style="rounded=0;whiteSpace=wrap;html=1;fillColor=#f8cecc;strokeColor=#b85450;" vertex="1" parent="1">
          <mxGeometry x="490" y="80" width="60" height="40" as="geometry" />
        </mxCell>
        <mxCell id="3Ctos8sl4r5GYlIamhK7-11" value="&lt;font style=&quot;font-size: 25px;&quot;&gt;ep&lt;/font&gt;" style="text;html=1;align=center;verticalAlign=middle;resizable=0;points=[];autosize=1;strokeColor=none;fillColor=none;" vertex="1" parent="1">
          <mxGeometry x="365" y="43" width="50" height="40" as="geometry" />
        </mxCell>
        <mxCell id="3Ctos8sl4r5GYlIamhK7-12" value="&lt;font style=&quot;font-size: 25px;&quot;&gt;eq&lt;/font&gt;" style="text;html=1;align=center;verticalAlign=middle;resizable=0;points=[];autosize=1;strokeColor=none;fillColor=none;" vertex="1" parent="1">
          <mxGeometry x="495" y="45" width="50" height="40" as="geometry" />
        </mxCell>
        <mxCell id="3Ctos8sl4r5GYlIamhK7-14" value="&lt;font style=&quot;font-size: 15px;&quot;&gt;x = 1.2&lt;/font&gt;" style="rounded=0;whiteSpace=wrap;html=1;fillColor=#f8cecc;strokeColor=#b85450;" vertex="1" parent="1">
          <mxGeometry x="190" y="160" width="60" height="40" as="geometry" />
        </mxCell>
        <mxCell id="3Ctos8sl4r5GYlIamhK7-15" value="&lt;font style=&quot;font-size: 15px;&quot;&gt;e=NULL&lt;/font&gt;" style="rounded=0;whiteSpace=wrap;html=1;fillColor=#f8cecc;strokeColor=#b85450;" vertex="1" parent="1">
          <mxGeometry x="250" y="160" width="60" height="40" as="geometry" />
        </mxCell>
        <mxCell id="3Ctos8sl4r5GYlIamhK7-17" value="" style="rounded=0;whiteSpace=wrap;html=1;fillColor=#f8cecc;strokeColor=#b85450;" vertex="1" parent="1">
          <mxGeometry x="393" y="281" width="60" height="40" as="geometry" />
        </mxCell>
        <mxCell id="3Ctos8sl4r5GYlIamhK7-18" value="&lt;font style=&quot;font-size: 25px;&quot;&gt;epp&lt;/font&gt;" style="text;html=1;align=center;verticalAlign=middle;resizable=0;points=[];autosize=1;strokeColor=none;fillColor=none;" vertex="1" parent="1">
          <mxGeometry x="387" y="243" width="70" height="40" as="geometry" />
        </mxCell>
        <mxCell id="3Ctos8sl4r5GYlIamhK7-19" style="edgeStyle=orthogonalEdgeStyle;rounded=0;orthogonalLoop=1;jettySize=auto;html=1;entryX=0.317;entryY=1;entryDx=0;entryDy=0;entryPerimeter=0;" edge="1" parent="1" source="3Ctos8sl4r5GYlIamhK7-17" target="3Ctos8sl4r5GYlIamhK7-2">
          <mxGeometry relative="1" as="geometry">
            <Array as="points">
              <mxPoint x="160" y="301" />
              <mxPoint x="160" y="140" />
              <mxPoint x="210" y="140" />
            </Array>
          </mxGeometry>
        </mxCell>
        <mxCell id="3Ctos8sl4r5GYlIamhK7-20" value="&lt;font style=&quot;font-size: 25px;&quot;&gt;ep&lt;/font&gt;" style="text;html=1;align=center;verticalAlign=middle;resizable=0;points=[];autosize=1;strokeColor=none;fillColor=none;" vertex="1" parent="1">
          <mxGeometry x="525" y="243" width="50" height="40" as="geometry" />
        </mxCell>
        <mxCell id="3Ctos8sl4r5GYlIamhK7-26" style="edgeStyle=orthogonalEdgeStyle;rounded=0;orthogonalLoop=1;jettySize=auto;html=1;exitX=0.25;exitY=0;exitDx=0;exitDy=0;entryX=0;entryY=1;entryDx=0;entryDy=0;" edge="1" parent="1" source="3Ctos8sl4r5GYlIamhK7-21" target="3Ctos8sl4r5GYlIamhK7-15">
          <mxGeometry relative="1" as="geometry" />
        </mxCell>
        <mxCell id="3Ctos8sl4r5GYlIamhK7-21" value="" style="rounded=0;whiteSpace=wrap;html=1;fillColor=#f8cecc;strokeColor=#b85450;" vertex="1" parent="1">
          <mxGeometry x="520" y="280" width="60" height="40" as="geometry" />
        </mxCell>
        <mxCell id="3Ctos8sl4r5GYlIamhK7-23" value="&lt;font style=&quot;font-size: 15px;&quot;&gt;x=&lt;/font&gt;&lt;div&gt;&lt;font style=&quot;font-size: 15px;&quot;&gt;garbage&lt;/font&gt;&lt;/div&gt;" style="rounded=0;whiteSpace=wrap;html=1;fillColor=#f8cecc;strokeColor=#b85450;" vertex="1" parent="1">
          <mxGeometry x="651" y="280" width="60" height="40" as="geometry" />
        </mxCell>
        <mxCell id="3Ctos8sl4r5GYlIamhK7-28" style="edgeStyle=orthogonalEdgeStyle;rounded=0;orthogonalLoop=1;jettySize=auto;html=1;exitX=0.75;exitY=1;exitDx=0;exitDy=0;" edge="1" parent="1" source="3Ctos8sl4r5GYlIamhK7-24">
          <mxGeometry relative="1" as="geometry">
            <mxPoint x="756" y="350" as="targetPoint" />
          </mxGeometry>
        </mxCell>
        <mxCell id="3Ctos8sl4r5GYlIamhK7-24" value="&lt;font style=&quot;font-size: 20px;&quot;&gt;e&lt;/font&gt;" style="rounded=0;whiteSpace=wrap;html=1;fillColor=#f8cecc;strokeColor=#b85450;" vertex="1" parent="1">
          <mxGeometry x="711" y="280" width="60" height="40" as="geometry" />
        </mxCell>
        <mxCell id="3Ctos8sl4r5GYlIamhK7-29" value="&lt;font style=&quot;font-size: 25px;&quot;&gt;FUNCTION&lt;/font&gt;" style="whiteSpace=wrap;html=1;aspect=fixed;gradientColor=default;fillColor=none;" vertex="1" parent="1">
          <mxGeometry x="387" y="170" width="400" height="400" as="geometry" />
        </mxCell>
      </root>
    </mxGraphModel>
  </diagram>
</mxfile>
